<svg xmlns="http://www.w3.org/2000/svg" width="30" height="12" viewBox="0 0 30 12">
    <g fill="none" fill-rule="evenodd">
        <rect width="30" height="12" fill="#D73D3E" rx="6"/>
        <path fill="#FFF" d="M6.508 5.608h1.984v-.192c0-.472-.272-.88-.976-.88-.672 0-1.008.408-1.008.904v.168zm2.424 1.464l.416.728c-.424.288-.984.472-1.808.472-1.016 0-2.016-.48-2.016-2.056V5.76c0-1.432.888-2.056 2.008-2.056S9.46 4.352 9.46 5.64v.728H6.508c0 .704.384 1.064 1.088 1.064.52 0 .896-.104 1.336-.36zm4.22-3.28l-.288.912a1.33 1.33 0 0 0-.56-.096.959.959 0 0 0-.984.984v2.616h-1.008V3.8h.968v.64h.016c.232-.44.608-.736 1.232-.736.224 0 .464.032.624.088zm3.436 0l-.288.912a1.33 1.33 0 0 0-.56-.096.959.959 0 0 0-.984.984v2.616h-1.008V3.8h.968v.64h.016c.232-.44.608-.736 1.232-.736.224 0 .464.032.624.088zm2.388 3.6c.6 0 1.048-.32 1.048-1.16v-.488c0-.84-.416-1.16-1.048-1.16-.632 0-1.048.32-1.048 1.16v.488c0 .84.448 1.16 1.048 1.16zm0 .88c-1.248 0-2.064-.736-2.064-2.024v-.52c0-1.296.816-2.024 2.064-2.024 1.248 0 2.064.728 2.064 2.024v.52c0 1.288-.816 2.024-2.064 2.024zm5.772-4.48l-.288.912a1.33 1.33 0 0 0-.56-.096.959.959 0 0 0-.984.984v2.616h-1.008V3.8h.968v.64h.016c.232-.44.608-.736 1.232-.736.224 0 .464.032.624.088z"/>
    </g>
</svg>
