<svg xmlns="http://www.w3.org/2000/svg" width="30" height="12" viewBox="0 0 30 12">
    <g fill="none" fill-rule="evenodd">
        <rect width="30" height="12" fill="#1D2635" rx="6"/>
        <path fill="#FFF" d="M8.786 7.392c.6 0 1.048-.32 1.048-1.16v-.488c0-.84-.416-1.16-1.048-1.16-.632 0-1.048.32-1.048 1.16v.488c0 .84.448 1.16 1.048 1.16zm0 .88c-1.248 0-2.064-.736-2.064-2.024v-.52c0-1.296.816-2.024 2.064-2.024 1.248 0 2.064.728 2.064 2.024v.52c0 1.288-.816 2.024-2.064 2.024zm6.86-4.472l-1.712 1.824 1.784 2.584H14.43l-1.2-1.872-.504.56v1.312h-1.008V2.16h1.008v3.504L14.374 3.8h1.272zm1.916 4.472c-.944 0-1.496-.456-1.496-1.232v-.256c0-.72.424-1.256 1.664-1.256h1.008V5.36c0-.544-.24-.768-.784-.768-.472 0-.88.152-1.248.44l-.496-.736c.448-.312 1-.592 1.752-.592 1.032 0 1.776.52 1.776 1.408v3.096h-.904l-.016-.544c-.168.392-.792.608-1.256.608zm1.176-1.84v-.12h-.984c-.528 0-.712.216-.712.56v.096c0 .288.208.456.6.456.424 0 .704-.088.912-.296.184-.176.184-.368.184-.696zM20.294 3.8h1.12l1 3.256h.032L23.454 3.8h1.072l-2.288 6.24-.944-.328.568-1.448L20.294 3.8z"/>
    </g>
</svg>
