<svg xmlns="http://www.w3.org/2000/svg" width="8" height="10" viewBox="0 0 8 10">
    <g fill="none" fill-rule="evenodd">
        <path fill="#000" fill-rule="nonzero" d="M6.877 2.699L4.592.143A.447.447 0 0 0 4.28 0H.937C.42 0 0 .447 0 .997v7.006C0 8.553.42 9 .937 9h5.126C6.579 9 7 8.553 7 8.003V3.027a.528.528 0 0 0-.123-.328zM4.593.839L6.25 2.694H4.902c-.17 0-.309-.147-.309-.328V.84zM6.55 8.004c0 .285-.218.518-.486.518H.937c-.268 0-.486-.232-.486-.518V.997C.45.712.669.479.937.479h3.206v1.885c0 .446.34.808.759.808h1.647v4.831z"/>
        <g transform="translate(3 5)">
            <circle cx="2.5" cy="2.5" r="2.5" fill="#6FB88D"/>
            <path fill="#FFF" fill-rule="nonzero" d="M3.719 1.3l-1.57 1.88-.935-.788L1 2.668 2.194 3.7 4 1.537z"/>
        </g>
    </g>
</svg>
